# xmcd
#
# Track frame offsets: 
#        150
#        13868
#        31179
#        50716
#        79494
#        101474
#        118738
#        133878
#        149827
#        170055
#        190487
#        201740
#        220663
#        238470
#        254535
#        271599
#
# Disc length: 3869 seconds
#
# Revision: 0
# Processed by: cddbd v1.5.2PL0 Copyright (c) Steve Scherf et al.
# Submitted via: ExactAudioCopyFreeDBPlugin 1.0
#
DISCID=070f1b10
DTITLE=Jimmy McCracklin - Truth And Soul Classic
DYEAR=2001
DGENRE=Blues
TTITLE0=Revenge
TTITLE1=Out Side Help
TTITLE2=Tomorrow
TTITLE3=Never Regret
TTITLE4=Remember
TTITLE5=River Invition
TTITLE6=Fever
TTITLE7=Now You Known
TTITLE8=Good Old Days
TTITLE9=Hate
TTITLE10=Think
TTITLE11=After Hours
TTITLE12=Bad Situation
TTITLE13=Party
TTITLE14=Doing Me Wrong
TTITLE15=Don't Bother Me
EXTD=
EXTT0=
EXTT1=
EXTT2=
EXTT3=
EXTT4=
EXTT5=
EXTT6=
EXTT7=
EXTT8=
EXTT9=
EXTT10=
EXTT11=
EXTT12=
EXTT13=
EXTT14=
EXTT15=
PLAYORDER=
